# xmcd
#
# Track frame offsets: 
#        150
#        14710
#        37405
#        53753
#        71003
#        88527
#        115264
#        138532
#        154022
#        185714
#        204578
#        219710
#        238197
#        254097
#        277708
#        292830
#        310878
#        336035
#
# Disc length: 4765 seconds
#
# Revision: 1
# Processed by: cddbd v1.5.2PL0 Copyright (c) Steve Scherf et al.
# Submitted via: ExactAudioCopy v1.3
#
DISCID=1a129b12
DTITLE=Various Artist - Akella Presents - vol.64 - Women's Blues  CD1
DYEAR=2016
DGENRE=Blues
TTITLE0=B.J. Sharp - Can't Keep A Hold On You
TTITLE1=Dana Gillespie - Have I Got Blues For You
TTITLE2=Kaz Hawkins - Hallelujah Happy People
TTITLE3=Barbara Blue - Trouble With A Capital 'T'
TTITLE4=Erja Lyytinen - Baby Please Set A Date
TTITLE5=Etta James - I Want To Ta Ta You, Baby
TTITLE6=Deitra Farr - Bad Company
TTITLE7=Bonnie Bramlett - What If
TTITLE8=Deanna Bogart - Wrong Side Of Love
TTITLE9=Wendy Rich - Drivin' Rain
TTITLE10=Lara and the Bluz Dawgz - I Wonder
TTITLE11=Lady Bianca - Roll Thang
TTITLE12=Carolyn Fe - Not Worth The Show
TTITLE13=Lauren Anderson - No Good
TTITLE14=Shemekia Copeland - Long As I Can See The Light
TTITLE15=Demetria Taylor - I Can't Take It No More
TTITLE16=Grainne Duffy - Sweet Sweet Baby
TTITLE17=Danielle Nicole - I Feel Like Breakin' Up Somebody's Home
EXTD=
EXTT0=
EXTT1=
EXTT2=
EXTT3=
EXTT4=
EXTT5=
EXTT6=
EXTT7=
EXTT8=
EXTT9=
EXTT10=
EXTT11=
EXTT12=
EXTT13=
EXTT14=
EXTT15=
EXTT16=
EXTT17=
PLAYORDER=
